<svg id="Component_21_1" data-name="Component 21 – 1" xmlns="http://www.w3.org/2000/svg" width="294" height="39.926" viewBox="0 0 294 39.926">
  <text id="Alternative_Education_Academy" data-name="Alternative Education Academy" transform="translate(65 25)" fill="#f48823" font-size="14" font-family="Poppins-Bold, Poppins" font-weight="700"><tspan x="0" y="0">Al</tspan><tspan y="0" letter-spacing="-0.009em">t</tspan><tspan y="0">ernati</tspan><tspan y="0" letter-spacing="-0.009em">v</tspan><tspan y="0">e Education </tspan><tspan y="0" letter-spacing="-0.009em">A</tspan><tspan y="0">cade</tspan><tspan y="0" letter-spacing="-0.018em">m</tspan><tspan y="0">y</tspan></text>
  <g id="Asset_22" data-name="Asset 22" transform="translate(0.009 0)">
    <circle id="Ellipse_1321" data-name="Ellipse 1321" cx="2.69" cy="2.69" r="2.69" transform="translate(23.38 16.72)" fill="#f48823"/>
    <path id="Path_1663" data-name="Path 1663" d="M13.77,34.65a2.21,2.21,0,1,0,.651-1.576A2.22,2.22,0,0,0,13.77,34.65Z" transform="translate(-9.27 -8.81)" fill="#f48823"/>
    <path id="Path_1664" data-name="Path 1664" d="M11.69,25.52a2.44,2.44,0,0,0,1.13-.27L34.51,13.88a2,2,0,0,1,1.85,0l21.5,11.37A2.43,2.43,0,0,0,60.12,21L38.62,9.59a6.87,6.87,0,0,0-6.36,0L10.57,21a2.42,2.42,0,0,0,1.12,4.57Z" transform="translate(-9.27 -8.81)" fill="#f48823"/>
    <path id="Path_1665" data-name="Path 1665" d="M52.49,34.65a2.21,2.21,0,1,0,.647-1.573,2.22,2.22,0,0,0-.647,1.573Z" transform="translate(-9.27 -8.81)" fill="#f48823"/>
    <path id="Path_1666" data-name="Path 1666" d="M21.32,37.75A11.58,11.58,0,0,1,16,38.91a11.63,11.63,0,0,1-5.33-1.16.82.82,0,0,0-1.12,1.14c.46.63,2.93,2.59,2.54,4.16-.52,2-2.73,4.38-1.41,5.51S15.09,45,16,45h0c.86,0,4,4.67,5.28,3.55s-.89-3.49-1.41-5.51c-.39-1.57,2.08-3.53,2.54-4.16a.82.82,0,0,0-1.09-1.13Z" transform="translate(-9.27 -8.81)" fill="#f48823"/>
    <path id="Path_1667" data-name="Path 1667" d="M60,37.75a12.83,12.83,0,0,1-10.66,0,.82.82,0,0,0-1.12,1.14c.46.63,2.93,2.59,2.54,4.16-.52,2-2.73,4.38-1.41,5.51S53.81,45,54.67,45h.08c.86,0,4,4.67,5.28,3.55s-.89-3.49-1.41-5.51c-.39-1.57,2.08-3.53,2.54-4.16A.82.82,0,0,0,60,37.75Z" transform="translate(-9.27 -8.81)" fill="#f48823"/>
    <path id="Path_1668" data-name="Path 1668" d="M42.67,32.1a16,16,0,0,1-7.32,1.59A16.06,16.06,0,0,1,28,32.1a1.13,1.13,0,0,0-1.54,1.56c.63.87,4,3.56,3.49,5.72-.72,2.77-3.75,6-1.94,7.56s6.07-4.87,7.25-4.87h.11c1.18,0,5.47,6.41,7.25,4.87s-1.22-4.79-1.93-7.56c-.54-2.16,2.85-4.85,3.49-5.72a1.13,1.13,0,0,0-1.51-1.56Z" transform="translate(-9.27 -8.81)" fill="#f48823"/>
  </g>
</svg>
