<svg xmlns="http://www.w3.org/2000/svg" width="208" height="22.522" viewBox="0 0 208 22.522">
  <g id="Group_797" data-name="Group 797" transform="translate(-1344 -452.354)">
    <circle id="Ellipse_264" data-name="Ellipse 264" cx="1.987" cy="1.987" r="1.987" transform="translate(1344 452.354)" fill="#f48823"/>
    <circle id="Ellipse_278" data-name="Ellipse 278" cx="1.987" cy="1.987" r="1.987" transform="translate(1362.548 452.354)" fill="#f48823"/>
    <circle id="Ellipse_292" data-name="Ellipse 292" cx="1.987" cy="1.987" r="1.987" transform="translate(1381.096 452.354)" fill="#f48823"/>
    <circle id="Ellipse_306" data-name="Ellipse 306" cx="1.987" cy="1.987" r="1.987" transform="translate(1399.644 452.354)" fill="#f48823"/>
    <circle id="Ellipse_320" data-name="Ellipse 320" cx="1.987" cy="1.987" r="1.987" transform="translate(1418.191 452.354)" fill="#f48823"/>
    <circle id="Ellipse_334" data-name="Ellipse 334" cx="1.987" cy="1.987" r="1.987" transform="translate(1436.739 452.354)" fill="#f48823"/>
    <circle id="Ellipse_348" data-name="Ellipse 348" cx="1.987" cy="1.987" r="1.987" transform="translate(1455.287 452.354)" fill="#f48823"/>
    <circle id="Ellipse_362" data-name="Ellipse 362" cx="1.987" cy="1.987" r="1.987" transform="translate(1473.834 452.354)" fill="#f48823"/>
    <circle id="Ellipse_376" data-name="Ellipse 376" cx="1.987" cy="1.987" r="1.987" transform="translate(1492.382 452.354)" fill="#f48823"/>
    <circle id="Ellipse_390" data-name="Ellipse 390" cx="1.987" cy="1.987" r="1.987" transform="translate(1510.93 452.354)" fill="#f48823"/>
    <circle id="Ellipse_404" data-name="Ellipse 404" cx="1.987" cy="1.987" r="1.987" transform="translate(1529.478 452.354)" fill="#f48823"/>
    <circle id="Ellipse_418" data-name="Ellipse 418" cx="1.987" cy="1.987" r="1.987" transform="translate(1548.025 452.354)" fill="#f48823"/>
    <circle id="Ellipse_265" data-name="Ellipse 265" cx="1.987" cy="1.987" r="1.987" transform="translate(1344 461.628)" fill="#f48823"/>
    <circle id="Ellipse_279" data-name="Ellipse 279" cx="1.987" cy="1.987" r="1.987" transform="translate(1362.548 461.628)" fill="#f48823"/>
    <circle id="Ellipse_293" data-name="Ellipse 293" cx="1.987" cy="1.987" r="1.987" transform="translate(1381.096 461.628)" fill="#f48823"/>
    <circle id="Ellipse_307" data-name="Ellipse 307" cx="1.987" cy="1.987" r="1.987" transform="translate(1399.644 461.628)" fill="#f48823"/>
    <circle id="Ellipse_321" data-name="Ellipse 321" cx="1.987" cy="1.987" r="1.987" transform="translate(1418.191 461.628)" fill="#f48823"/>
    <circle id="Ellipse_335" data-name="Ellipse 335" cx="1.987" cy="1.987" r="1.987" transform="translate(1436.739 461.628)" fill="#f48823"/>
    <circle id="Ellipse_349" data-name="Ellipse 349" cx="1.987" cy="1.987" r="1.987" transform="translate(1455.287 461.628)" fill="#f48823"/>
    <circle id="Ellipse_363" data-name="Ellipse 363" cx="1.987" cy="1.987" r="1.987" transform="translate(1473.834 461.628)" fill="#f48823"/>
    <circle id="Ellipse_377" data-name="Ellipse 377" cx="1.987" cy="1.987" r="1.987" transform="translate(1492.382 461.628)" fill="#f48823"/>
    <circle id="Ellipse_391" data-name="Ellipse 391" cx="1.987" cy="1.987" r="1.987" transform="translate(1510.93 461.628)" fill="#f48823"/>
    <circle id="Ellipse_405" data-name="Ellipse 405" cx="1.987" cy="1.987" r="1.987" transform="translate(1529.478 461.628)" fill="#f48823"/>
    <circle id="Ellipse_419" data-name="Ellipse 419" cx="1.987" cy="1.987" r="1.987" transform="translate(1548.025 461.628)" fill="#f48823"/>
    <circle id="Ellipse_266" data-name="Ellipse 266" cx="1.987" cy="1.987" r="1.987" transform="translate(1344 470.902)" fill="#f48823"/>
    <circle id="Ellipse_280" data-name="Ellipse 280" cx="1.987" cy="1.987" r="1.987" transform="translate(1362.548 470.902)" fill="#f48823"/>
    <circle id="Ellipse_294" data-name="Ellipse 294" cx="1.987" cy="1.987" r="1.987" transform="translate(1381.096 470.902)" fill="#f48823"/>
    <circle id="Ellipse_308" data-name="Ellipse 308" cx="1.987" cy="1.987" r="1.987" transform="translate(1399.644 470.902)" fill="#f48823"/>
    <circle id="Ellipse_322" data-name="Ellipse 322" cx="1.987" cy="1.987" r="1.987" transform="translate(1418.191 470.902)" fill="#f48823"/>
    <circle id="Ellipse_336" data-name="Ellipse 336" cx="1.987" cy="1.987" r="1.987" transform="translate(1436.739 470.902)" fill="#f48823"/>
    <circle id="Ellipse_350" data-name="Ellipse 350" cx="1.987" cy="1.987" r="1.987" transform="translate(1455.287 470.902)" fill="#f48823"/>
    <circle id="Ellipse_364" data-name="Ellipse 364" cx="1.987" cy="1.987" r="1.987" transform="translate(1473.834 470.902)" fill="#f48823"/>
    <circle id="Ellipse_378" data-name="Ellipse 378" cx="1.987" cy="1.987" r="1.987" transform="translate(1492.382 470.902)" fill="#f48823"/>
    <circle id="Ellipse_392" data-name="Ellipse 392" cx="1.987" cy="1.987" r="1.987" transform="translate(1510.93 470.902)" fill="#f48823"/>
    <circle id="Ellipse_406" data-name="Ellipse 406" cx="1.987" cy="1.987" r="1.987" transform="translate(1529.478 470.902)" fill="#f48823"/>
    <circle id="Ellipse_420" data-name="Ellipse 420" cx="1.987" cy="1.987" r="1.987" transform="translate(1548.025 470.902)" fill="#f48823"/>
    <circle id="Ellipse_275" data-name="Ellipse 275" cx="1.987" cy="1.987" r="1.987" transform="translate(1353.274 470.902)" fill="#f48823"/>
    <circle id="Ellipse_289" data-name="Ellipse 289" cx="1.987" cy="1.987" r="1.987" transform="translate(1371.822 470.902)" fill="#f48823"/>
    <circle id="Ellipse_303" data-name="Ellipse 303" cx="1.987" cy="1.987" r="1.987" transform="translate(1390.369 470.902)" fill="#f48823"/>
    <circle id="Ellipse_317" data-name="Ellipse 317" cx="1.987" cy="1.987" r="1.987" transform="translate(1408.917 470.902)" fill="#f48823"/>
    <circle id="Ellipse_331" data-name="Ellipse 331" cx="1.987" cy="1.987" r="1.987" transform="translate(1427.465 470.902)" fill="#f48823"/>
    <circle id="Ellipse_345" data-name="Ellipse 345" cx="1.987" cy="1.987" r="1.987" transform="translate(1446.013 470.902)" fill="#f48823"/>
    <circle id="Ellipse_359" data-name="Ellipse 359" cx="1.987" cy="1.987" r="1.987" transform="translate(1464.561 470.902)" fill="#f48823"/>
    <circle id="Ellipse_373" data-name="Ellipse 373" cx="1.987" cy="1.987" r="1.987" transform="translate(1483.108 470.902)" fill="#f48823"/>
    <circle id="Ellipse_387" data-name="Ellipse 387" cx="1.987" cy="1.987" r="1.987" transform="translate(1501.656 470.902)" fill="#f48823"/>
    <circle id="Ellipse_401" data-name="Ellipse 401" cx="1.987" cy="1.987" r="1.987" transform="translate(1520.204 470.902)" fill="#f48823"/>
    <circle id="Ellipse_415" data-name="Ellipse 415" cx="1.987" cy="1.987" r="1.987" transform="translate(1538.751 470.902)" fill="#f48823"/>
    <circle id="Ellipse_276" data-name="Ellipse 276" cx="1.987" cy="1.987" r="1.987" transform="translate(1353.274 461.628)" fill="#f48823"/>
    <circle id="Ellipse_290" data-name="Ellipse 290" cx="1.987" cy="1.987" r="1.987" transform="translate(1371.822 461.628)" fill="#f48823"/>
    <circle id="Ellipse_304" data-name="Ellipse 304" cx="1.987" cy="1.987" r="1.987" transform="translate(1390.369 461.628)" fill="#f48823"/>
    <circle id="Ellipse_318" data-name="Ellipse 318" cx="1.987" cy="1.987" r="1.987" transform="translate(1408.917 461.628)" fill="#f48823"/>
    <circle id="Ellipse_332" data-name="Ellipse 332" cx="1.987" cy="1.987" r="1.987" transform="translate(1427.465 461.628)" fill="#f48823"/>
    <circle id="Ellipse_346" data-name="Ellipse 346" cx="1.987" cy="1.987" r="1.987" transform="translate(1446.013 461.628)" fill="#f48823"/>
    <circle id="Ellipse_360" data-name="Ellipse 360" cx="1.987" cy="1.987" r="1.987" transform="translate(1464.561 461.628)" fill="#f48823"/>
    <circle id="Ellipse_374" data-name="Ellipse 374" cx="1.987" cy="1.987" r="1.987" transform="translate(1483.108 461.628)" fill="#f48823"/>
    <circle id="Ellipse_388" data-name="Ellipse 388" cx="1.987" cy="1.987" r="1.987" transform="translate(1501.656 461.628)" fill="#f48823"/>
    <circle id="Ellipse_402" data-name="Ellipse 402" cx="1.987" cy="1.987" r="1.987" transform="translate(1520.204 461.628)" fill="#f48823"/>
    <circle id="Ellipse_416" data-name="Ellipse 416" cx="1.987" cy="1.987" r="1.987" transform="translate(1538.751 461.628)" fill="#f48823"/>
    <circle id="Ellipse_277" data-name="Ellipse 277" cx="1.987" cy="1.987" r="1.987" transform="translate(1353.274 452.354)" fill="#f48823"/>
    <circle id="Ellipse_291" data-name="Ellipse 291" cx="1.987" cy="1.987" r="1.987" transform="translate(1371.822 452.354)" fill="#f48823"/>
    <circle id="Ellipse_305" data-name="Ellipse 305" cx="1.987" cy="1.987" r="1.987" transform="translate(1390.369 452.354)" fill="#f48823"/>
    <circle id="Ellipse_319" data-name="Ellipse 319" cx="1.987" cy="1.987" r="1.987" transform="translate(1408.917 452.354)" fill="#f48823"/>
    <circle id="Ellipse_333" data-name="Ellipse 333" cx="1.987" cy="1.987" r="1.987" transform="translate(1427.465 452.354)" fill="#f48823"/>
    <circle id="Ellipse_347" data-name="Ellipse 347" cx="1.987" cy="1.987" r="1.987" transform="translate(1446.013 452.354)" fill="#f48823"/>
    <circle id="Ellipse_361" data-name="Ellipse 361" cx="1.987" cy="1.987" r="1.987" transform="translate(1464.561 452.354)" fill="#f48823"/>
    <circle id="Ellipse_375" data-name="Ellipse 375" cx="1.987" cy="1.987" r="1.987" transform="translate(1483.108 452.354)" fill="#f48823"/>
    <circle id="Ellipse_389" data-name="Ellipse 389" cx="1.987" cy="1.987" r="1.987" transform="translate(1501.656 452.354)" fill="#f48823"/>
    <circle id="Ellipse_403" data-name="Ellipse 403" cx="1.987" cy="1.987" r="1.987" transform="translate(1520.204 452.354)" fill="#f48823"/>
    <circle id="Ellipse_417" data-name="Ellipse 417" cx="1.987" cy="1.987" r="1.987" transform="translate(1538.751 452.354)" fill="#f48823"/>
  </g>
</svg>
