<svg xmlns="http://www.w3.org/2000/svg" width="91" height="27" viewBox="0 0 91 27">
  <g id="logo" transform="translate(-35 -47)">
    <g id="Asset_22" data-name="Asset 22" transform="translate(35.01 47)">
      <circle id="Ellipse_1321" data-name="Ellipse 1321" cx="1.811" cy="1.811" r="1.811" transform="translate(15.74 11.258)" fill="#fff"/>
      <path id="Path_1663" data-name="Path 1663" d="M13.77,33.925a1.488,1.488,0,1,0,.438-1.061A1.495,1.495,0,0,0,13.77,33.925Z" transform="translate(-10.743 -16.526)" fill="#fff"/>
      <path id="Path_1664" data-name="Path 1664" d="M10.9,20.061a1.643,1.643,0,0,0,.761-.182l14.6-7.656a1.347,1.347,0,0,1,1.246,0L41.984,19.88a1.636,1.636,0,0,0,1.522-2.862L29.029,9.335a4.626,4.626,0,0,0-4.282,0l-14.6,7.683A1.629,1.629,0,0,0,10.9,20.1Z" transform="translate(-9.27 -8.81)" fill="#fff"/>
      <path id="Path_1665" data-name="Path 1665" d="M52.49,33.925a1.488,1.488,0,1,0,.436-1.059,1.495,1.495,0,0,0-.436,1.059Z" transform="translate(-23.391 -16.526)" fill="#fff"/>
      <path id="Path_1666" data-name="Path 1666" d="M17.433,37.71a7.8,7.8,0,0,1-3.582.781,7.831,7.831,0,0,1-3.589-.781.552.552,0,0,0-.754.768c.31.424,1.973,1.744,1.71,2.8-.35,1.347-1.838,2.949-.949,3.71s2.969-2.4,3.582-2.4h0c.579,0,2.693,3.144,3.555,2.39s-.6-2.35-.949-3.71c-.263-1.057,1.4-2.377,1.71-2.8a.552.552,0,0,0-.734-.761Z" transform="translate(-9.323 -18.224)" fill="#fff"/>
      <path id="Path_1667" data-name="Path 1667" d="M56.11,37.7a8.639,8.639,0,0,1-7.178,0,.552.552,0,0,0-.754.768c.31.424,1.973,1.744,1.71,2.8-.35,1.347-1.838,2.949-.949,3.71s3-2.4,3.582-2.4h.054c.579,0,2.693,3.144,3.555,2.39s-.6-2.35-.949-3.71c-.263-1.057,1.4-2.377,1.71-2.8a.552.552,0,0,0-.781-.761Z" transform="translate(-21.954 -18.211)" fill="#fff"/>
      <path id="Path_1668" data-name="Path 1668" d="M37.321,32.049a10.774,10.774,0,0,1-4.929,1.071,10.814,10.814,0,0,1-4.949-1.071.761.761,0,0,0-1.037,1.05c.424.586,2.693,2.4,2.35,3.852-.485,1.865-2.525,4.04-1.306,5.09s4.087-3.279,4.882-3.279h.074c.795,0,3.683,4.316,4.882,3.279s-.821-3.225-1.3-5.09c-.364-1.454,1.919-3.266,2.35-3.852a.761.761,0,0,0-1.017-1.05Z" transform="translate(-14.835 -16.367)" fill="#fff"/>
    </g>
    <text id="Alternative_Education_Academy" data-name="Alternative 
Education 
Academy" transform="translate(79 55)" fill="#fff" font-size="8" font-family="Poppins-SemiBold, Poppins" font-weight="600"><tspan x="0" y="0">Al</tspan><tspan y="0" letter-spacing="-0.009em">t</tspan><tspan y="0">ernati</tspan><tspan y="0" letter-spacing="-0.009em">v</tspan><tspan y="0">e </tspan><tspan x="0" y="8">Education </tspan><tspan x="0" y="16" letter-spacing="-0.009em">A</tspan><tspan y="16">cade</tspan><tspan y="16" letter-spacing="-0.018em">m</tspan><tspan y="16">y</tspan></text>
  </g>
</svg>
